<svg xmlns="http://www.w3.org/2000/svg" width="3000" height="700" fill="none" viewBox="0 0 3000 700"><g clip-path="url(#a)"><path fill="#3A9139" d="M0 0h3000v700H0V0Z"/><path fill="#3A8C38" d="m958 340-1 49-1 181-1 44v86h16V372l-1-34 6 2c27 7 54 6 65 6-4-14-39-28-47-30 17-13 42-39 47-56-31-2-56 18-70 37 5-20 6-45-6-59a178 178 0 0 0-13 50c-7-9-16-18-27-25s-24-11-37-11c1 7 4 13 7 19 5 7 9 14 15 20-14-3-28-3-37 2 5 5 28 18 51 25-21 2-43 7-53 20 7 3 30 4 52 1-16 8-31 19-35 34 12-1 53-14 70-33ZM1893 8c-22 1-37 14-33 23 3 6 44 1 50-10l-36 679h7l41-678c1 17 51 17 55 13 18-15-29-27-40-28 3 0 30 1 40-7h-122c6 7 24 8 38 8Z"/><path fill="#398C37" d="M0 370v330h133a1277 1277 0 0 0 71-115c31-58 57-119 75-182l1-5 1-5h12a387 387 0 0 0 225-88c15-15 32-80 49-167 8-42 16-89 23-138h-53c-10 48-20 92-31 130-12 44-27 80-42 101-12 15-36 28-62 37-30 10-63 16-83 15-7 0-12-1-16-3 8-33 19-93 29-154L351 0H160c-11 60-23 115-36 161-14 48-29 87-45 110-19 26-46 60-79 99Zm2411-216c8 10 30 10 50 8-41 6-50 34-45 42 6 9 18 11 27 5 10-6 25-25 39-34-13 10-50 64-25 72 22 7 45-59 53-76v529h10V177c4 26 17 83 46 67 34-19-11-53-19-62 23 10 37 37 57 13 23-28-48-37-65-39 5 0 57-2 66-20 2-3 2-7 0-12-13-28-61 2-78 16l-2 2 2-2c13-17 38-72 11-79-28-8-32 46-33 65 1-27-23-72-43-58s18 62 29 75v2l-1-2c-26-14-78-27-81-1-1 5 0 9 2 12Z"/><path fill="#338233" d="M988 700h71c4-7 6-13 4-16-3-5-23 0-33 9v-13c15 10 39-26 34-33-4-4-24 0-34 10v-14c15 10 39-25 34-32-3-5-23 0-34 9l1-14c15 11 40-25 35-32-3-5-24 0-35 10l1-15c15 12 41-25 36-32-3-5-24 1-35 10l1-15c14 13 42-24 37-31-3-5-25 0-36 10l1-16c14 15 43-24 39-31-4-5-27 1-38 12l2-19c13 18 44-22 40-29-4-6-29 1-39 13v-21l-5 20c-8-10-30-15-35-10-6 8 15 44 33 28l-3 17c-9-9-30-14-34-8-6 7 15 42 32 29l-2 15c-8-8-25-12-31-9l-3 1c-2 3 0 8 3 14 6 12 18 24 29 16l-1 14c-8-7-21-10-28-9-3 0-4 1-5 2-3 3 0 11 4 18 7 10 18 18 27 12v13c-8-6-19-9-27-9l-6 2c-3 4 0 13 6 21 7 8 17 15 25 10v13c-7-6-17-9-25-9-4 0-7 0-8 2-3 4 1 14 8 22s16 13 24 9v12c-7-5-15-8-24-9-4 0-8 1-9 3-3 3 2 13 9 21s16 14 24 10v12c-8-5-16-8-24-9l-9 2c-2 3 0 8 3 14Z"/><path fill="#398C37" d="m1517 286-3 137-1 119v158h20V420l-1-136c22 23 74 40 88 41-5-19-24-33-45-43 27 6 55 8 64 5-10-28-37-39-63-41 21-17 39-40 46-61-40-3-71 23-89 47 6-25 8-57-7-74-6 8-15 36-17 63-18-24-46-47-82-46 4 15 14 33 28 50-17-4-34-5-47 1 8 7 37 23 65 32-26 2-54 9-66 26 9 3 38 4 66 1-21 10-40 24-46 43 15-1 68-18 90-42Zm687 414h76l1-28 2-43 19-362 4-73 2-23 4-56 8-115h-44l-18 178-5 44-8 76-2 24-30 296-5 44-1 7a29433 29433 0 0 0-3 31Zm-426-165 13-2-11 4 12 23 48 6-34 16 20 34 36-7-30 18 20 35 21-5-6 3-12 6 19 34h79v-2a200 200 0 0 0 2-39v-6l-3-13c-8-23-34-47-63-67l-6-4-2-1c-46-30-99-53-117-57l14 24Z"/><path fill="#398C37" d="M1949 697v3h74l5-140a6218 6218 0 0 0 2-67l9-185 2-50v-3l4-73 5-79 7-103h-45l-14 148-3 29-2 20-7 68-4 40-17 165c-11-6-20-9-26-14-7 4-9 9-10 18 7 16 32 36 32 41-3 25-5 58-7 94l-1 6a3853 3853 0 0 0-2 43v6l-2 33ZM3000 0h-331c27 32 50 51 60 56l7 85 15 162 14 153a4542 4542 0 0 0 4 43l18 176 3 25h210V0ZM1605 700h103c12-106 48-324 89-553l25-134 2-13h-99l-21 133-75 451-24 116Zm-477-530-2 530h223a3339 3339 0 0 1 38-460l-32-31c-6 14-25 54-45 72l-6-145-5-136h-171v170Z"/><path fill="#348730" d="m2430 480 53 16-46 5c12 35 32 74 59 112l86-16-52 21-24 10a531 531 0 0 0 64 72h316a487 487 0 0 0-234-291l11 42-12-20-21-34a408 408 0 0 0-100-33l-6-1 19 44-3-4-38-42c-31 0-56 8-71 26l-3 5 47 36-52-22c-4 18-2 44 7 74Z"/><path fill="#3A9139" d="m2551 486 219 214h48l-267-214Z"/><path fill="#338233" d="m2579 376 2 19 71 36h-1l-66-5a685 685 0 0 0 56 176l128-2-117 25c13 26 27 51 43 75h305V429c-26-29-54-56-84-81l5 63-34-85c-48-35-97-61-141-74l-2-1 17 68-48-75c-44-9-81-3-107 18l-7 7 59 64-69-46c-9 22-12 52-10 89Z"/><path fill="#3A9139" d="m2689 372 245 328h53l-298-328Z"/><path fill="#338233" d="M1258 700h363a639 639 0 0 0 6-140l-54 18 51-46c-5-38-15-69-29-88l-48 53 35-66-6-4c-13-6-27-8-43-7l-17 2-2 1a162 162 0 0 0-32 11l-24 73-1-60c-34 21-70 53-103 93l-1 8-9 70-9-54c-31 42-57 88-77 136Z"/><path fill="#3A9139" d="M1428 700h22l75-180-97 180Z"/><path fill="#348730" d="M0 621v79h202l-31-52 16 17 33 33 116-56-50-103 86 85 115-56-63-102 138 66 74-36-23-33 30 30 82-40a1157 1157 0 0 0-410-59 582 582 0 0 0-47 6c-70 12-130 38-168 86-35 44-68 89-100 135Z"/><path fill="#338233" d="M0 427v273h85l-61-48 104 48h33l44-59-128-96 163 52 130-172-146-35 166 8 49-64-59-9 67-2 53-68-98 13-83 15A700 700 0 0 0 0 427Zm671 189 73 84h103l94-88a3 3 0 0 0-4-6l-70 28a3 3 0 0 1-4-5l33-71a3 3 0 0 0-6-4l-45 46a3 3 0 0 1-6-3l12-71a3 3 0 0 0-6-2l-32 52a3 3 0 0 1-6-1l-7-70a3 3 0 0 0-7 0l-9 71a3 3 0 0 1-6 1l-26-53a3 3 0 0 0-7 2l8 65a3 3 0 0 1-6 3l-42-44a3 3 0 0 0-6 4l32 75a3 3 0 0 1-5 4l-51-22a3 3 0 0 0-4 5Zm1195 43 1 1a107 107 0 0 0 16 10c17 9 40 19 66 27l4 1 6 2h243l3-1c28-7 56-17 76-27 19-10 31-20 29-30-2-7-12-11-27-13l-34-2c24-22 38-43 31-56-5-9-30-5-61 6 16-29 22-54 12-63l-8-2c-11 1-29 12-49 28 5-33 3-58-10-63-11-4-31 18-50 51-8-40-22-71-38-70-12 1-21 27-26 63-5-10-12-19-20-28-12-15-24-23-33-20-10 4-11 29-6 62l-30-20c-13-6-23-7-30-2-8 7-1 30 15 59-25-8-46-12-57-7a15 15 0 0 0-7 6c-3 4 0 11 5 20l29 32a188 188 0 0 0-38 3c-13 3-21 8-23 16-1 5 3 11 11 17Z"/><path fill="#3A9139" d="M2085 700h5c1-51-7-199-11-199-3 0 1 148 6 199Zm-187-50c-1 1 37 11 80 21l-16-11c-36-7-64-12-64-10Zm22-58c-1 1 31 22 68 46l-11-16c-31-18-56-32-57-30Zm267 82c43-10 81-19 81-21s-29 3-65 10l-16 11Zm1-49-12 16c37-23 69-44 68-46-1-1-25 12-56 30Zm-35-10c29-35 53-65 51-67-1-1-20 21-44 48l-7 19Zm-143-4-5-18c-24-28-43-49-45-48-1 1 22 32 50 66Zm111-26 1 18c16-44 30-85 28-85-1-1-14 29-29 67Zm-75 27v-23c-16-41-31-77-33-76-1 1 15 49 33 99Z"/></g><defs><clipPath id="a"><path fill="#fff" d="M0 0h3000v700H0z"/></clipPath></defs></svg>