<svg width="1500" height="550" viewBox="0 0 1500 550" fill="none" xmlns="http://www.w3.org/2000/svg">
<g clip-path="url(#clip0_68_1243)">
<path d="M0.5 0H1500.5V550H0.5V0Z" fill="#3A9139"/>
<path d="M756.93 2.93012C756.455 2.30512 756.43 1.26512 756.715 0.000117187H772.135C766.735 3.60012 758.585 5.16512 756.935 2.93012H756.93ZM780.815 0.000117187H796.215C796.54 1.26512 796.53 2.30012 796.1 2.93012C794.53 5.17012 786.29 3.59512 780.82 0.000117187H780.815ZM814 149.5C812.625 152.25 799.5 149.135 793.95 143.58C795.135 150.34 795.725 154.03 795.25 154C794.95 154.03 793.66 150.53 791.86 144.1C788.395 149.33 777.42 152.165 774.825 149.5C771.155 145.82 780.075 127.215 789.445 134.875C788.825 132.355 788.178 129.61 787.505 126.64C783.455 131.44 773.265 133.925 770.855 131.37C768.055 128.47 773.28 116.295 780.105 114.97C781.82 114.641 783.632 115.04 785.05 116.06L785.28 116.22V116.105C784.807 113.772 784.33 111.338 783.85 108.805C781.6 111.155 777.9 112.915 774.535 113.715C772.395 114.225 767.4 115.132 766.82 111.935C765.677 106.739 770.616 99.65 775.13 97.4001C777.256 96.2497 779.858 96.3694 781.86 97.7051L781.65 96.4401C781.333 94.5901 781.027 92.7018 780.73 90.7751C776.12 95.1901 766.6 97.3651 764.43 94.9101C759.305 89.1818 772.364 75.1959 779.015 79.2101C778.715 77.0501 778.423 74.8584 778.14 72.6351C773.34 76.9351 764.015 79.0101 761.94 76.5851C758.855 73.0501 768.44 56.0351 776.73 60.7101C776.503 58.6335 776.287 56.5335 776.08 54.4101C771.12 58.6101 761.93 60.6201 759.95 58.2201C756.985 54.7201 766.89 37.8601 775 42.2201L774.55 36.1101C769.45 40.2401 760.36 42.1951 758.46 39.8101C755.595 36.3101 765.85 19.5751 773.83 23.7351C773.737 21.7351 773.648 19.7351 773.565 17.7351C768.345 21.8251 759.29 23.7351 757.465 21.3701C754.705 17.8701 765.365 1.18012 773.225 5.26012C773.192 3.51678 773.17 1.76178 773.16 -0.00488281H779.395L779.445 5.54512C787.095 0.510118 798.96 17.8051 796.595 21.3851C794.93 23.8351 785.095 21.7101 779.685 17.3451C779.752 19.5951 779.835 21.8284 779.935 24.0451C787.485 18.8551 799.875 36.2301 797.6 39.8201C796 42.2801 786.04 40.1201 780.515 35.7201C780.648 38.0035 780.788 40.2701 780.935 42.5201C788.335 37.1701 801.285 54.6351 799.085 58.2201C797.535 60.6901 787.415 58.4951 781.785 54.0501C781.975 56.3835 782.175 58.7001 782.385 61.0001C789.61 55.4151 803.17 73.0001 801.07 76.6001C799.57 79.1001 789.205 76.8301 783.495 72.3101C783.752 74.7501 784.013 77.1501 784.28 79.5101C788.08 76.2701 794 80.0101 798.315 84.6601C804.807 91.6957 805.096 98.54 793.505 94.5851C790.666 93.6543 788.002 92.255 785.625 90.4451L786.315 95.7301L786.625 98.0401C790.675 94.0751 797.76 99.0401 802.34 104.41C805.38 107.985 807.34 111.74 806.54 113.195C805.125 115.755 793.91 113.255 788.09 108.43C788.513 111.283 788.933 114.023 789.35 116.65C792.53 112.885 798.16 115.65 802.76 119.81C807.36 123.98 810.94 129.55 810 131.395C808.62 134.03 796.67 131.295 790.9 126.195L792.48 135.43C798.23 126.42 815.77 145.76 813.98 149.51L814 149.5Z" fill="#3A8C37"/>
<path d="M1011.05 224.965C1017.09 332.822 1012.48 441.994 1012.85 549.995H1003.7C1002.84 441.389 1001.83 332.642 1003.76 224.045C989.445 228.304 974.689 228.374 959.91 228.945C962.46 219.895 983.91 211.495 988.96 210.125C978.72 202.005 963.27 186.085 959.91 175.5C979.41 174.325 994.38 186.96 1003.2 198.72C1000.4 186.4 999.58 170.94 1006.88 162.26C1008.38 164.625 1010.35 169.85 1012.06 176.26C1013.55 181.762 1014.6 187.373 1015.21 193.04C1019.52 187.27 1025.02 181.64 1031.64 177.505C1038.26 173.37 1045.99 170.735 1054.78 170.945C1054 174.445 1052.34 178.345 1050.03 182.395C1047.45 186.862 1044.47 191.088 1041.13 195.025C1049.67 192.975 1058.05 192.625 1064.1 195.805C1060.5 199.305 1046.34 206.92 1032.35 211.365C1045.2 212.415 1058.95 215.865 1064.85 223.965C1060.43 225.415 1046.35 226.055 1032.75 224.43C1042.65 229.205 1052.2 236.27 1054.75 245.32C1047.38 245.01 1021.49 236.55 1011.04 224.95L1011.05 224.965Z" fill="#3A8C38"/>
<path d="M570.39 215.6C572.74 210.865 565.05 204.275 554 203.865V203.86C562.715 203.92 575.565 203.335 574.19 196.135C572.53 187.575 554.95 193.335 547.28 198.685C550.03 194.59 562.42 177.505 555.43 173.3C548.44 169.095 541.73 184.045 542.58 192.865C541.89 186.73 539.34 169.205 530.34 172.365C521.34 175.525 531.84 194.24 536.34 198.55C531.505 194.62 513.64 184.415 509.92 194.235C506.2 204.055 529.97 203.435 532.06 203.505C526.395 204.215 502.82 209.75 511.745 217.425C513.905 219.28 538.81 219.52 539.68 211.19L560.04 549.97H563.575L545.39 210.56C548.44 215.98 568.85 218.7 570.39 215.6Z" fill="#3A8C38"/>
<path d="M1500.5 75.815V80.845C1397.14 92.4649 1292.19 89.4569 1189.73 71.405C1107.68 56.9511 1027.33 32.9349 950.8 0H963.63C1036.11 30.2255 1111.91 52.5075 1189.24 66.225C1291.82 84.4327 1396.99 87.4741 1500.51 75.81L1500.5 75.815Z" fill="#3A8C37"/>
<path d="M1500.5 385V550H1433.9C1401.63 503.04 1375.02 451.758 1359.83 396.655C1318.41 397.775 1271.39 381.95 1241.64 352.665C1226.94 338.165 1208.47 231.59 1196.05 128.6C1190.92 85.864 1186.49 42.9638 1183.85 0H1203.73C1208.87 41.5004 1213.81 83.0277 1219.78 124.42C1231.41 204.67 1247.13 286.505 1268.68 315.355C1282.75 334.211 1322.02 340.06 1348.8 340.06C1340.36 303.86 1325.3 208.06 1322.02 172.48C1278.52 129.927 1247.87 55.9739 1227.9 0H1277.4C1286.7 25.235 1298.05 50.78 1311.05 63.8C1308.78 42.6086 1307.63 21.3125 1307.6 0L1394.74 0C1407.9 130.825 1411.76 280.135 1500.51 385.005L1500.5 385Z" fill="#3A8C37"/>
<path d="M259.935 256.2C280.665 259.2 285.22 273.08 282.405 276.95C279.28 281.25 273.735 282.34 268.975 279.45C264.215 276.56 256.325 267.035 249.615 262.275C256.165 267.425 274.365 294.275 262.025 298.275C251.025 301.825 239.61 268.985 235.475 260.395V550H230.575V263.665C228.445 276.335 221.875 304.785 207.295 296.845C190.385 287.645 213.01 270.57 217.095 265.97C205.505 270.76 198.595 284.61 188.595 272.59C177.045 258.705 212.295 253.765 221.035 253.22C217.835 252.905 181.385 251.58 188.035 236.905C194.685 222.23 221.035 239.555 228.085 246.035C221.585 239.01 207.315 209.345 221.37 205.365C235.425 201.385 237.685 228.465 238.155 237.915C237.685 224.335 249.395 202.085 259.705 209.19C270.015 216.295 249.405 241.275 244.795 247.29C257.045 239.84 284.53 232.69 286.245 245.965C287.68 257.115 273.295 257.13 259.945 256.205L259.935 256.2Z" fill="#3A8C37"/>
<path d="M1006.5 550H970.88C968.88 546.64 967.88 543.34 968.83 542.03C970.605 539.645 980.33 542.03 985.56 546.53C985.587 544.297 985.603 542.08 985.61 539.88C977.82 544.78 966.225 527.14 968.71 523.645C970.45 521.245 980.275 523.695 985.59 528.225C985.59 525.958 985.568 523.708 985.525 521.475C977.825 526.55 965.825 508.805 968.265 505.3C969.965 502.89 979.965 505.38 985.33 509.97C985.28 507.637 985.225 505.328 985.165 503.045C977.565 508.385 965.105 490.48 967.49 486.965C969.17 484.53 979.4 487.095 984.805 491.765C984.722 489.325 984.63 486.925 984.53 484.565C977.03 490.325 964.03 472.18 966.39 468.64C968.05 466.175 978.605 468.84 984.04 473.64C983.907 471.04 983.773 468.507 983.64 466.04C976.33 472.425 962.64 453.92 964.96 450.34C966.61 447.84 977.635 450.66 983.04 455.65C982.867 452.79 982.69 450.045 982.51 447.415C975.43 454.735 960.925 435.705 963.2 432.08C964.85 429.495 976.55 432.58 981.85 437.83L981.18 428.58C974.465 437.38 958.84 417.55 961.105 413.845C962.79 411.145 975.605 414.645 980.605 420.345C980.14 413.57 979.99 409.845 980.435 409.895C980.77 409.895 981.635 413.435 982.755 419.895C986.785 414.775 998.14 412.265 1000.46 415.005C1003.71 418.805 992.83 437.115 984.215 429.165L985.34 437.455C989.88 432.79 1000.34 430.615 1002.53 433.235C1005.63 436.955 994.99 454.585 986.595 447.92C986.862 450.303 987.125 452.782 987.385 455.355C990.293 452.676 1000.64 447.359 1004.26 451.5C1005.29 452.76 1004.71 455.62 1003.18 458.6C1000.25 464.27 993.83 470.35 988.43 466.49C988.63 468.74 988.822 471.047 989.005 473.41C991.798 471.022 1002.28 465.582 1005.66 469.795C1006.9 471.345 1005.67 475.295 1003.26 478.895C999.98 483.77 994.495 488.045 989.845 484.985C989.985 487.135 990.118 489.322 990.245 491.545C993.815 488.66 999.525 486.92 1003.29 486.985C1004.91 486.985 1006.17 487.365 1006.74 488.11C1008.07 489.825 1006.36 494.46 1003.34 498.35C999.995 502.65 995.045 506.03 990.845 503.45C990.935 505.517 991.018 507.613 991.095 509.74C994.51 507.105 999.685 505.455 1003.37 505.32C1005.32 505.245 1006.87 505.595 1007.48 506.445C1008.84 508.245 1006.8 513.255 1003.44 517.245C1000.07 521.235 995.405 524.185 991.47 521.895C991.52 523.895 991.562 525.928 991.595 527.995C995.106 525.532 999.21 524.048 1003.48 523.695C1005.58 523.565 1007.26 523.905 1007.91 524.795C1009.26 526.61 1007.07 531.71 1003.58 535.715C1000.19 539.615 995.575 542.475 991.725 540.305C991.725 542.305 991.725 544.305 991.725 546.305C995.259 543.88 999.364 542.415 1003.64 542.055C1005.74 541.935 1007.37 542.275 1008.01 543.165C1008.88 544.435 1008.14 547.135 1006.49 549.99L1006.5 550Z" fill="#338233"/>
<path d="M752.68 263.67C757.982 358.758 755.351 454.783 755 550H743.35L743.44 262.51C729.84 276.76 698.175 287.075 689.07 287.435C692.28 276.035 704.3 267.135 716.77 261.125C700.185 264.975 683.345 266.25 677.93 264.475C683.59 247.125 700.18 240.475 716.35 238.725C703.45 228.49 692.425 214.675 688.185 201.335C712.785 199.835 731.635 215.775 742.745 230.6C739.21 215.07 738.185 195.6 747.385 184.65C750.735 190.02 756.215 207.07 757.885 223.435C768.76 208.895 785.6 195.06 807.755 195.585C805.755 204.485 799.205 215.645 790.565 225.935C801.315 223.36 811.89 222.905 819.515 226.935C814.975 231.35 797.135 240.935 779.515 246.535C795.715 247.87 813.05 252.22 820.515 262.415C814.945 264.24 797.185 265.045 780.065 263C792.565 269 804.565 277.915 807.795 289.325C798.505 288.945 765.875 278.285 752.685 263.66L752.68 263.67Z" fill="#3A8C37"/>
<path d="M398.26 550H360.5C357.08 465.632 352.484 381.278 347.295 297C339.787 198.055 336.137 97.9691 319.325 0H341.075C360.688 183.139 380.692 366.255 398.24 549.605L398.275 550.005L398.26 550Z" fill="#3A8C37"/>
<path d="M611.3 467.72L604.85 466.5L610.7 468.74L604.25 479.78L580.65 483.16L597.73 490.96L587.695 508.16L569.295 504.61L584.56 513.525L574.48 530.8L563.85 528.63L573.215 532.98L563.265 550.03H524C516.368 499.999 576.107 465.283 618.4 455.525L611.3 467.72Z" fill="#3A8C37"/>
<path d="M246.285 0C239.655 80.2968 214.753 189.601 136.1 227.755C131.581 335.126 117.11 443.201 105.615 549.98H0.5V0H160.38C155.72 47.9213 150.497 95.7934 145.54 143.685C196.419 121.312 210.361 48.0693 218.385 0L246.285 0Z" fill="#3A8C37"/>
<path d="M468.2 145.695C465.825 145.155 459.965 142.485 457.55 140.455C455.472 141.633 453.309 143.811 452.595 146.095C454.462 155.584 462.556 166.215 469.945 172.285C480.183 297.927 484.568 424.055 489.195 550H526C526 540.25 520.245 457.595 520.245 457.595V457.495C520.02 455.19 532.52 444.845 535.82 437.07C535.7 432.655 534.685 429.795 531.12 428.07C528.075 430.41 523.695 432.17 517.945 434.78C503.292 289.869 488.883 144.933 474.15 0.0297852H454.39C459.139 48.5733 463.813 97.1172 468.2 145.695Z" fill="#3A8C37"/>
<path d="M698.09 550H646.43C625.652 365.539 587.512 181.178 547.36 -0.0297852H571.07C580.092 53.3135 585.622 125.76 631.725 160.1L698.075 549.985L698.09 550Z" fill="#3A8C37"/>
<path d="M826.26 550H937.56C937.297 366.64 934.883 183.328 939.41 0L857.775 0.03C854.012 112.825 864.935 229.217 845.335 340.5C835.29 331.635 826.02 311.41 823.15 304.72C819 307.87 809.7 317.035 807.15 320.22C808.5 326.17 819.21 397.835 824 474C825.61 499.59 826.56 525.7 826.26 550Z" fill="#3A8C37"/>
<path d="M1094.54 0C938.006 74.7828 764.229 113.1 590.67 108.19C437.202 103.981 284.863 66.5745 146.56 0H167.725C300.261 60.8804 444.944 95.2936 590.815 99.18C756.862 102.939 922.081 69.0679 1073.27 0H1094.54Z" fill="#358734"/>
<path d="M701.72 0C607.423 57.3649 501.778 95.7375 392.555 111.67C261.111 130.657 125.716 116.453 0.5 72.62L0.5 56.71C124.964 101.142 259.532 115.771 390.425 96.845C489.164 82.5489 585.345 49.2213 672.1 0L701.72 0Z" fill="#358533"/>
<path d="M1500.5 12.91V29.71C1326.49 116.715 1130.83 154.614 936.95 138.895C769.381 125.271 605.099 75.6761 455.26 0H489.31C629.487 66.7406 782.073 111.159 937.095 123.88C1131.1 139.775 1327.01 101.274 1500.5 12.91Z" fill="#358533"/>
<path d="M285.525 439.82L259.275 448.095L282.115 450.33C275.805 467.92 265.865 487.48 252.765 506.53L209.5 498.465L247.54 513.935C238.021 526.886 227.354 539.048 215.59 550.005H57.765C73.5552 487.749 119.204 435.457 174.5 404.25L168.9 425.365L185.5 398.45C202.258 390.134 219.864 383.992 238.43 381.425L228.915 403.35L249.395 380.67C262.371 380.531 279.544 383.631 286.63 396.035L263.09 414.2L289.14 402.95C291.125 412.1 289.8 425 285.52 439.815L285.525 439.82Z" fill="#348730"/>
<path d="M224.9 442.9L115.33 550H91.55L224.9 442.9V442.9Z" fill="#3A9139"/>
<path d="M210.15 397.26L174.715 415.65H174.915L207.915 413.15C202.682 443.407 192.8 472.89 180.02 500.775L116.135 500.075L174.35 512.675C167.973 525.501 160.896 537.966 153.15 550.015H0.5V414.5C13.4733 399.973 27.5629 386.484 42.64 374.155L39.9 405.73L56.9 363.12C78.6567 347.223 102.49 333.669 128.29 325.585L120.16 359.305L143.76 321.79C162.227 318.356 187.626 318.468 200.8 334.445L171.7 366.285L206.12 343.695C212.842 360.19 212.029 379.765 210.15 397.26Z" fill="#338233"/>
<path d="M156.015 386.1L33.69 550H6.815L156.015 386.1Z" fill="#3A9139"/>
<path d="M871.7 550H690.23C686.51 526.878 685.12 503.198 686.88 479.82L714.06 488.895L688.345 466.095C691.015 446.995 696.055 431.635 702.975 422.205L726.975 448.305L709.375 415.605C723.784 405.057 744.889 410.237 759.65 417.05L771.46 453.335L771.76 423.485C788.97 433.885 806.835 449.81 823.46 469.835L828.67 508.975L833.02 482.04C848.592 503.058 861.575 525.876 871.69 550H871.7Z" fill="#338233"/>
<path d="M786.28 550H775.51L737.975 459.815L786.275 550H786.28Z" fill="#3A9139"/>
<path d="M1500.5 510.735V550H1399.27L1415.04 524.13L1390.5 549L1332.55 520.9L1357.35 469.7L1314.57 512.2L1256.91 484.235L1288.57 432.77L1219.44 466.06L1182.44 448.125L1194.06 431.625L1179.06 446.45L1138.13 426.6C1207.61 400.089 1292.44 387.276 1366.57 400.13C1433.48 411.509 1464.3 458.554 1500.5 510.735Z" fill="#348730"/>
<path d="M1500.5 413.735V550H1457.9L1488.65 526L1436.46 550H1420.11L1408.53 534.78L1397.81 520.71L1462 472.65L1398.75 492.57L1380.72 498.245L1315.34 412.36L1388.68 394.85L1305.32 399.2L1280.9 367.1L1310.46 362.65L1276.8 361.73L1250.6 327.31L1299.66 333.945C1312.42 335.875 1326.45 338.285 1341.21 341.445C1393.3 352.545 1454.43 372.835 1500.5 413.725V413.735Z" fill="#338233"/>
<path d="M1128.31 550L1164.94 508.2H1164.94C1166.03 506.887 1164.59 504.803 1162.94 505.48L1137.44 516.695C1136.07 517.298 1134.54 515.86 1135.14 514.435L1150.82 476.87C1151.5 475.206 1149.27 473.641 1147.95 475.005L1127.28 496.805C1126.19 497.968 1124.08 497.059 1124.28 495.415L1127.94 462.955C1128.13 461.148 1125.5 460.284 1124.65 462L1111.61 488.735C1110.9 490.21 1108.52 489.879 1108.32 488.18L1104.06 452.53C1103.81 450.63 1100.83 450.546 1100.6 452.56L1097.1 487.38C1096.95 488.955 1094.74 489.513 1093.89 488.1L1077.99 461.78C1077.06 460.228 1074.45 461.112 1074.8 462.985L1081.18 498.52C1081.42 500.096 1079.4 501.195 1078.22 500.02L1055.46 476.92C1054.18 475.637 1051.85 477.132 1052.65 478.87L1069.11 514.5C1069.74 515.852 1068.34 517.411 1066.91 516.845L1031.94 503.145C1030.27 502.502 1028.75 504.737 1030.11 506.03L1076.88 550H1128.31Z" fill="#338233"/>
<path d="M534.975 270.135C535.575 268.21 539.26 260.82 551.375 261.87H551.385C563.51 262.92 555.215 283.315 550 287.98C544.785 292.645 523.31 291.235 512.5 293.61C499.6 296.46 490.5 320.82 478.85 327.96C484.15 332.36 493.16 336.585 499.275 336.06C503.915 331.06 509.785 331.83 514.315 335.56C520.735 340.835 506.315 360.33 497.365 361.41C489.895 362.315 480.125 350.095 462.665 346.53C446.8 343.295 422.75 343.04 420.5 343C387.858 330.04 363.028 311.951 361.5 272.85C349.09 265.5 340.5 253.765 334.655 240.075C317.558 234.732 296.43 199.832 324.28 195.585C320.99 161.215 326.08 128.735 327.28 124.95C319.14 125.45 318 122.18 318.18 110.9C318.405 98.145 324.78 96.395 336.68 96.565C348.065 96.73 355.815 98.265 356.065 107.115C356.445 120.905 353.315 125.555 347.255 124.905C344.625 136.71 342.965 153.87 345.675 174.835C362.51 140.35 404.91 139.225 406.385 135.925C408.16 131.935 394.96 134.8 391.21 131.05C386.68 126.54 423.63 126.515 423.68 138.215C423.68 139.133 422.968 146.751 393.426 150.808C408.12 148.811 426.271 149.083 438.445 158.51C432.095 126.35 430.205 121.45 424.295 111.55C417.135 114.81 414.005 108.11 411.635 100.31C409.5 93.24 411.05 87.505 424.465 84.19C437.05 81.125 444.115 84.33 447.65 93.19C451.645 103.215 448.455 104.67 442.73 106.8C447.72 114.05 457.54 138.74 462 171C483.443 173.578 474.985 205.178 464 215.2C463.613 223.102 462.768 230.975 461.47 238.78C478.325 247.36 484.905 267.42 487.095 284.595C499.205 267.57 528.855 270.095 534.975 270.135Z" fill="#338233"/>
<path d="M422 337.5C411 350 393.135 365.59 372 351.5C351 337.5 354.605 323 348.5 308.5C341.763 292.5 318.5 285.5 307 298.5C292.146 315.291 313.121 343.971 328.5 335C336 330.625 335 322.5 325.5 316" stroke="#338233" stroke-width="11" stroke-linecap="round" stroke-linejoin="round"/>
<path d="M1076.72 106.997C1079.1 110.664 1083.32 113.464 1088 112.5C1092.68 111.536 1094.78 105.791 1096.92 102.255C1099.28 98.3536 1105.59 97.4189 1108.08 101.234C1111.3 106.162 1106.83 112.503 1102.61 110.5C1100.5 109.5 1099.5 106.997 1101.5 104" stroke="#3A8C37" stroke-width="2.88886" stroke-linecap="round" stroke-linejoin="round"/>
<path d="M1108.07 46.8401C1104.35 46.0551 1103.22 47.5601 1102.64 49.8001C1101.79 53.1151 1102.64 54.1851 1104.21 54.2501C1104.45 58.8059 1103.92 63.3687 1102.65 67.7501C1102 64.3851 1099.2 61.9151 1095.65 60.3651C1101.61 61.6901 1102.43 60.1801 1102.51 59.9751C1103.72 57.1001 1094.67 53.2501 1095.31 54.8251C1095.84 56.1351 1099.36 56.8251 1098.51 57.6001C1097.81 58.2601 1085.08 54.9501 1078.78 60.3501C1080.73 53.0701 1082 51.0751 1083.92 48.7501C1085.64 49.8701 1087.59 47.7801 1088.52 45.8501C1089.35 44.1101 1089.83 42.1801 1085.84 40.6801C1082.08 39.2651 1080.21 40.2901 1078.94 42.4451C1077.51 44.8801 1077.47 46.4451 1078.87 47.2201C1076.27 50.9551 1074.49 53.5401 1072.69 62.1551C1067.04 61.9189 1067.95 70.468 1070.39 73.4851C1070.18 75.5465 1070.09 77.6182 1070.11 79.6901C1065.41 81.2401 1062.92 86.1901 1061.68 90.5301C1059.22 85.6451 1052.17 85.8401 1050.6 85.6101C1050.52 85.0851 1049.86 82.4951 1046.69 82.8201C1043.51 83.1451 1044.86 88.2201 1046.02 89.6401C1047.19 91.0601 1052.8 91.5401 1055.52 92.5801C1058.75 93.8301 1059.39 99.7801 1062.12 102.08C1060.57 103.01 1057.34 103.08 1055.78 102.72C1054.78 101.22 1053.66 100.485 1051.96 101.37C1050.03 102.37 1052.24 107.37 1054.51 108C1056.41 108.53 1060.91 107.75 1065.58 107.5C1069.81 107.29 1075.92 108.425 1076.5 108.5C1085.33 107.928 1093 101.176 1094.68 92.4551C1098.18 91.0401 1100.87 88.3551 1102.92 85.0351C1107.52 84.3771 1114.44 75.7969 1107.36 73.9551C1109.56 65.1951 1109.54 56.5851 1109.36 55.5551C1111.45 56.0051 1111.73 55.5051 1112.27 52.2801C1112.93 48.3601 1111.61 47.5601 1108.07 46.8151V46.8401Z" fill="#3A8C37"/>
<path d="M634 215C628.965 220.3 617.45 224.457 609.5 218C601.815 211.758 609.003 198.551 604 193C598.604 187.013 589.863 188.3 585.622 194.66C579.792 203.404 592 216 596.5 205" stroke="#358734" stroke-width="5.82999" stroke-linecap="round" stroke-linejoin="round"/>
<path d="M687.5 218.53C684.9 215.715 679.91 216.44 677.91 217.92C674.085 216.81 670.13 211.77 667.085 207.8C672.685 197.13 668.085 180.87 665.325 177.735C668.06 174.325 669.565 169.57 670.325 164.735C677.295 160.265 683.451 142.09 670.62 142.34C672.155 130.19 667.62 111.31 667.07 108.925C670.755 108.725 670.17 105.15 669.795 102.175C668.975 95.8399 664.57 95.7649 660.405 96.2549C654.005 97.0049 652.405 100.295 653.185 103.995C653.985 107.995 654.12 111.095 657.985 110.26C658.635 112.21 661.27 129.06 660.485 136.22C657.435 130.745 650.165 128.135 642.085 127.72C653.025 126.655 653.585 123.605 653.62 123.22C654.12 117.56 636.245 115.97 638.235 118.34C639.885 120.315 646.385 119.505 645.36 121.34C644.51 122.87 618.21 125.14 611.945 137.97C609.845 128.92 611.37 113.395 611.645 111.47C615.145 111.97 616.995 107.645 616.815 103.59C616.655 99.9099 614.665 96.8249 608.715 96.8299C605.33 96.8299 599.435 97.1899 599.185 103.88C599.095 106.38 599.25 111.27 603.01 111.41C602.86 114.11 600.15 131.14 602.84 144.83C590.608 146.253 598.347 163.241 605.315 167.035C606.5 172.235 609.365 177.215 615.605 182.585C614.105 195.7 617.315 209.85 626.005 216.225C627 217.92 631.085 221.685 631.085 221.685C633.165 231.985 642.535 240.745 646.975 241.555C653.975 242.825 660.695 238.775 660.565 235.655C660.365 231.005 653.75 230.615 651.315 231.155C648.815 229.015 644.365 225.13 642.815 219.44C645.815 219.21 655.365 216.44 657.595 214.82C663.595 224.27 672.705 230.405 678.375 229.355C685.905 227.99 689.625 220.82 687.495 218.52L687.5 218.53Z" fill="#358734"/>
<path d="M520.955 550H399.635C388.037 546.957 341.899 539.065 345.705 520.96C347.563 512.208 369.498 513.451 376 513.595C363.87 502.385 356.785 491.805 360.42 485.735C363.17 481.15 375.42 482.965 390.86 488.435C383.07 473.935 379.86 461.66 385.24 457.115C392.383 451.083 409.001 466.236 413.66 469.965C411.01 453.665 411.94 440.965 418.54 438.415C424.07 436.29 433.94 447.54 443.74 463.965C447.74 443.865 454.39 428.665 462.575 429C468.31 429.25 472.785 442.635 475.275 460.72C479.657 453.182 491.249 432.565 502.165 436.625C507.235 438.525 507.615 451.19 504.915 467.7C530.711 447.157 543.237 456.805 527.57 486.16C558.287 475.209 567.152 488.641 542.41 511.475C550.149 511.31 570.562 510.624 572.865 521.03C576.062 535.643 529.3 547.547 520.955 550Z" fill="#338233"/>
<path d="M457.85 550H455.38C454.945 524.33 458.78 450.415 460.83 450.5C462.38 450.565 460.32 524.36 457.855 550H457.85ZM551.65 524.83C551.82 525.6 533.15 530.4 511.45 535.47C514.11 533.72 516.74 531.905 519.325 530.07C537.255 526.43 551.45 523.955 551.645 524.835L551.65 524.83ZM540.565 495.815C540.975 496.485 525.065 506.995 506.345 518.78C508.265 516.28 510.145 513.72 511.965 511.155C527.615 501.94 540.095 495.055 540.565 495.815V495.815ZM407.135 536.825C385.255 531.975 366.375 527.285 366.585 526.26C366.725 525.595 380.885 527.975 398.8 531.42C401.525 533.27 404.31 535.08 407.13 536.82L407.135 536.825ZM406.435 512.5C408.388 515.117 410.405 517.7 412.485 520.25C393.755 508.75 377.935 498.46 378.46 497.575C378.81 496.995 391 503.6 406.43 512.495L406.435 512.5ZM423.895 507.45C409.645 490.16 397.66 474.83 398.46 474.15C398.96 473.71 408.66 484.3 420.65 498.05C421.667 501.206 422.75 504.34 423.9 507.45H423.895ZM495.305 505.69C496.305 502.69 497.275 499.625 498.18 496.58C510.065 482.665 519.73 471.965 520.43 472.54C521.04 473.04 509.28 488.33 495.31 505.69H495.305ZM440.135 492.3C439.936 495.327 439.795 498.358 439.71 501.39C431.41 479.27 424.46 459.24 425.48 458.84C426.16 458.58 432.645 473.69 440.13 492.29L440.135 492.3ZM477.275 505.915C477.44 502.13 477.515 498.29 477.515 494.445C485.515 473.78 492.84 456.145 493.815 456.51C494.665 456.83 486.355 481.16 477.28 505.91L477.275 505.915Z" fill="#3A9139"/>
<path d="M1113.5 356C1129.89 341.89 1134.76 312.245 1129.74 286.245C1136.45 279.445 1141.24 269.745 1144.48 259.78C1155.67 251.54 1167.42 224.962 1149.03 217.995C1154.28 177.895 1144.48 147.26 1143.77 141.91C1151.27 141.04 1150.82 131.21 1150.24 126.25C1148.69 112.915 1136.84 113.125 1130.07 113.65C1118.16 114.575 1114.68 121.05 1114.93 128.435C1115.21 136.575 1119.62 144.935 1126.5 143.385C1127.36 147.15 1132.84 177.945 1130.06 196.385C1121.79 189.155 1114.4 183.805 1105.74 180.355C1123.19 180.14 1124.88 175.025 1125.05 174.285C1127.62 162.875 1091.61 154.615 1095 160.02C1097.82 164.52 1111.32 164.685 1108.7 168.17C1106.53 171.06 1043.1 170.345 1032.7 200.5C1030.03 186.3 1032.68 152.175 1033.66 148.185C1041.53 149.25 1041.29 142.985 1042.29 134.905C1043.21 127.38 1039.53 121.055 1026.63 120.555C1018.23 120.23 1009.42 121.055 1008.78 133.87C1008.48 139.87 1007.88 147.11 1015.28 146.92C1014.56 151.78 1008.44 190.27 1013.41 214.32C987.92 216.68 1002.81 251.175 1017.5 259C1019.77 268.55 1023.53 277.82 1029.5 284.21C1024.46 290.91 1017.83 324.16 1030.7 344.61C1025.23 353.03 1017.85 365.33 1010.38 368.15C1006.15 365.5 995.06 366.35 992.78 372.19C990.5 378.03 999.63 392.76 1014.9 394.365C1026.4 395.58 1040.32 377.115 1050.79 357.275C1055.5 360.2 1074.08 364.21 1080.07 364.2C1077.9 375.82 1071.65 386.7 1067 391.36C1062.05 390.695 1049.46 392.36 1049.53 402.71C1049.58 408.985 1063.86 416.025 1077.63 412.385C1086.39 410.07 1101.43 389.3 1106.41 366.885C1108.54 357.275 1113.5 356 1113.5 356Z" fill="#338233"/>
<path d="M1101.5 353C1111 363 1131 370.183 1146 358C1160.5 346.223 1144.62 312.863 1156 302C1167 291.5 1185.5 297 1193.5 309C1204.5 325.5 1183 346.5 1174 330.5" stroke="#338233" stroke-width="11" stroke-linecap="round" stroke-linejoin="round"/>
</g>
</svg>
