<svg xmlns="http://www.w3.org/2000/svg" width="3000" height="700" fill="none" viewBox="0 0 3000 700"><g clip-path="url(#a)"><path fill="#3A9139" d="M0 0h3000v700H0V0Z"/><path fill="#3A8C38" d="M147 7h-37a5 5 0 0 0-4 4v41l9-9h32a5 5 0 0 0 4-4V11a5 5 0 0 0-4-4ZM73 204H36a5 5 0 0 0-4 5v41l9-9h32a5 5 0 0 0 4-5v-27a5 5 0 0 0-4-5Zm311 290h-37a5 5 0 0 0-4 5v40l9-9h32a5 5 0 0 0 4-4v-27a5 5 0 0 0-4-5Zm-230 92h-36a5 5 0 0 0-5 5v41l9-9h32a5 5 0 0 0 4-5v-27a5 5 0 0 0-4-5Zm227-333h-37a5 5 0 0 0-4 5v41l9-9h32a5 5 0 0 0 4-5v-27a5 5 0 0 0-4-5Zm188 58h-37a5 5 0 0 0-4 5v40l9-9h32a5 5 0 0 0 4-4v-27a5 5 0 0 0-4-5Zm123 237h-36a5 5 0 0 0-5 4v41l9-9h32a5 5 0 0 0 4-5v-27a5 5 0 0 0-4-4Zm-169 95h-36a5 5 0 0 0-5 5v41l9-10h32a5 5 0 0 0 5-4v-27a5 5 0 0 0-5-5Zm308-316h-36a5 5 0 0 0-4 5v41l9-9h31a5 5 0 0 0 5-5v-27a5 5 0 0 0-5-5ZM988 57h-36a5 5 0 0 0-4 4v41l9-9h31a5 5 0 0 0 5-5V61a5 5 0 0 0-5-4Zm85 240h-37a5 5 0 0 0-4 4v41l9-9h32a5 5 0 0 0 4-5v-27a5 5 0 0 0-4-4Zm163-227h-36a5 5 0 0 0-5 4v41l9-9h32a5 5 0 0 0 5-5V74a5 5 0 0 0-5-4Zm165 45h-36a5 5 0 0 0-5 5v40l9-9h32a5 5 0 0 0 4-4v-27a5 5 0 0 0-4-5Zm11 385h-36a5 5 0 0 0-5 5v40l9-9h32a5 5 0 0 0 4-4v-27a5 5 0 0 0-4-5Zm-120 13h-36a5 5 0 0 0-5 5v41l10-9h31a5 5 0 0 0 5-5v-27a5 5 0 0 0-5-5Zm310 79h-36a5 5 0 0 0-5 5v41l9-9h32a5 5 0 0 0 5-5v-27a5 5 0 0 0-5-5Zm-428-229h-36a5 5 0 0 0-4 5v40l9-9h31a5 5 0 0 0 5-4v-27a5 5 0 0 0-5-5Zm391 40h-36a5 5 0 0 0-5 5v40l9-9h32a5 5 0 0 0 5-4v-27a5 5 0 0 0-5-5Zm-86-66h-36a5 5 0 0 0-5 5v41l9-9h32a5 5 0 0 0 5-5v-27a5 5 0 0 0-5-5Zm109-180h-37a5 5 0 0 0-4 4v41l9-9h32a5 5 0 0 0 4-4v-28a5 5 0 0 0-4-4Zm101 150h-37a5 5 0 0 0-4 5v41l9-9h32a5 5 0 0 0 4-5v-27a5 5 0 0 0-4-5Zm216-38h-36a5 5 0 0 0-5 5v41l9-9h32a5 5 0 0 0 4-5v-27a5 5 0 0 0-4-5Zm31 251h-36a5 5 0 0 0-5 4v41l9-9h32a5 5 0 0 0 5-5v-27a5 5 0 0 0-5-4Zm137-40h-36a5 5 0 0 0-4 4v41l9-9h31a5 5 0 0 0 5-4v-28a5 5 0 0 0-5-4Zm293 112h-36a5 5 0 0 0-5 5v41l9-9h32a5 5 0 0 0 5-5v-27a5 5 0 0 0-5-5Zm-189-157h-36a5 5 0 0 0-5 4v41l9-9h32a5 5 0 0 0 5-5v-27a5 5 0 0 0-5-5v1Zm150-108h-36a5 5 0 0 0-5 5v41l9-9h32a5 5 0 0 0 5-5v-27a5 5 0 0 0-5-5Zm161 26h-37a5 5 0 0 0-4 4v41l9-9h32a5 5 0 0 0 4-5v-27a5 5 0 0 0-4-4Zm52-331h-36a5 5 0 0 0-4 5v41l9-9h31a5 5 0 0 0 5-5V27a5 5 0 0 0-5-5Zm187 580h-37a5 5 0 0 0-4 5v40l9-9h32a5 5 0 0 0 4-4v-27a5 5 0 0 0-4-5Zm223-575h-37a5 5 0 0 0-4 4v41l9-9h32a5 5 0 0 0 4-5V31a5 5 0 0 0-4-4Zm-1 588h-36a5 5 0 0 0-5 4v41l9-9h32a5 5 0 0 0 4-4v-28a5 5 0 0 0-4-4Zm-832-300h-36a5 5 0 0 0-4 4v41l9-9h31a5 5 0 0 0 5-5v-27a5 5 0 0 0-5-4Zm-376 287h-36a5 5 0 0 0-5 5v40l10-9h31a5 5 0 0 0 5-4v-27a5 5 0 0 0-5-5Zm-489 26h-36a5 5 0 0 0-5 4v41l9-9h32a5 5 0 0 0 4-4v-28a5 5 0 0 0-4-4Z" opacity=".5"/><path fill="#3A8C38" d="M168 85H43a9 9 0 0 0-9 10v84l19-19h115a9 9 0 0 0 10-9V95a9 9 0 0 0-10-10Zm523-33H566a9 9 0 0 0-9 10v84l19-19h115a9 9 0 0 0 10-9V62a9 9 0 0 0-10-10Zm133 188H699a9 9 0 0 0-10 9v84l19-18h116a9 9 0 0 0 9-10v-56a9 9 0 0 0-9-9Zm673 323h-125a9 9 0 0 0-9 9v84l19-18h115a9 9 0 0 0 10-10v-56a9 9 0 0 0-10-9Zm426-310h-125a9 9 0 0 0-10 9v85l19-19h116a9 9 0 0 0 9-9v-57a9 9 0 0 0-9-9Zm-205-69h-125a9 9 0 0 0-9 9v84l19-18h115a9 9 0 0 0 10-10v-56a9 9 0 0 0-10-9Zm855-87h-125a9 9 0 0 0-9 9v85l18-19h116a9 9 0 0 0 9-9v-57a9 9 0 0 0-9-9Zm-411 481h-125a9 9 0 0 0-9 9v85l19-19h115a9 9 0 0 0 10-9v-57a9 9 0 0 0-10-9Zm868-462h-125a9 9 0 0 0-9 9v85l19-19h115a9 9 0 0 0 10-9v-57a9 9 0 0 0-10-9ZM1574 40h-125a9 9 0 0 0-9 9v84l19-18h115a9 9 0 0 0 10-10V49a9 9 0 0 0-10-9Zm-206 339h-125a9 9 0 0 0-9 9v85l18-19h116a9 9 0 0 0 9-9v-57a9 9 0 0 0-9-9Zm123-165h-125a9 9 0 0 0-10 9v84l19-18h116a9 9 0 0 0 9-10v-56a9 9 0 0 0-9-9Z" opacity=".8"/><path fill="#3B8A36" d="M264 299H79a17 17 0 0 0-17 17v152l33-34h169a17 17 0 0 0 17-17V316a17 17 0 0 0-17-17ZM415 23H229a17 17 0 0 0-17 17v152l34-34h169a17 17 0 0 0 17-16V40a17 17 0 0 0-17-17Zm351 357H581a17 17 0 0 0-17 17v152l34-34h168a17 17 0 0 0 17-17V397a17 17 0 0 0-17-17Zm529-281h-185a17 17 0 0 0-17 17v152l34-34h168a17 17 0 0 0 17-16V116a17 17 0 0 0-17-17Zm-178 387H931a17 17 0 0 0-17 17v152l34-34h169a17 17 0 0 0 17-17V503a17 17 0 0 0-17-17Zm699-70h-185a17 17 0 0 0-17 16v153l33-34h169a17 17 0 0 0 17-17V432a17 17 0 0 0-17-16Zm592 27h-185a17 17 0 0 0-17 17v152l34-34h168a17 17 0 0 0 17-17V460a17 17 0 0 0-17-17ZM1845-18h-186a17 17 0 0 0-16 17v152l33-34h169a17 17 0 0 0 17-16V-1a17 17 0 0 0-17-17Zm991 43h-185a17 17 0 0 0-17 17v152l34-34h168a17 17 0 0 0 17-17V42a17 17 0 0 0-17-17Z" opacity=".7"/><path fill="#388534" d="M483 489H142a36 36 0 0 0-36 37v326l72-72h305a36 36 0 0 0 36-37V526a36 36 0 0 0-36-37ZM880-86H539a36 36 0 0 0-36 36v327l72-73h305a36 36 0 0 0 36-36V-50a36 36 0 0 0-36-36Zm1488 48h-340a36 36 0 0 0-36 37v326l72-72h304a36 36 0 0 0 37-37V-1a36 36 0 0 0-37-37Zm561 291h-340a36 36 0 0 0-37 36v327l73-73h304a36 36 0 0 0 36-36V289a36 36 0 0 0-36-36Z"/></g><defs><clipPath id="a"><path fill="#fff" d="M0 0h3000v700H0z"/></clipPath></defs></svg>