<svg fill="none" height="24" viewBox="0 0 24 24" width="24" xmlns="http://www.w3.org/2000/svg"><g fill="#fbdd11"><path d="m6.83481 11.6834c-.61768.6521 2.86485 7.3351 10.42779 6.3795.9638-.1217 5.4034-1.4085 6.7064-7.9978.4018-2.03171-3.2219-.86643-3.802-.09315-1.3858 1.84865-3.5009 4.09125-4.9068 4.12015-.7259.0145-4.3051-2.9485-6.8338-2.8798-.54957.0148-1.18374.0407-1.59159.4711z"/><path d="m17.1649 11.9728c.618-.6521-2.8646-7.33502-10.42753-6.37949-.96374.12178-5.40342 1.40856-6.7063476 7.99809-.4018094 2.0315 3.2218876.8662 3.8016776.0929 1.38614-1.8487 3.5012-4.09126 4.90712-4.12013.7259-.01484 4.30508 2.94853 6.83378 2.87983.5496-.0149 1.1835-.0407 1.5913-.4712z"/></g></svg>